Coordinates
version=1
nRows=10
nColumns=33
inDegrees=yes

Units are S.I. units (second, meters, Newtons, ...)
Angles are in degrees.

endheader
time	ground_thorax_rot_x	ground_thorax_rot_y	ground_thorax_rot_z	ground_thorax_tx	ground_thorax_ty	ground_thorax_tz	clav_prot_r	clav_elev_r	scapula_abduction_r	scapula_elevation_r	scapula_upward_rot_r	scapula_winging_r	shoulder_elv_r	plane_of_elev_r	axial_rot_r	elbow_flexion_r	pro_sup_r	wrist_flex_r	wrist_dev_r	clav_prot_l	clav_elev_l	scapula_abduction_l	scapula_elevation_l	scapula_upward_rot_l	scapula_winging_l	shoulder_elv_l	plane_of_elev_l	axial_rot_l	elbow_flexion_l	pro_sup_l	wrist_flex_l	wrist_dev_l
      8.23000000	    -30.56218657	    -24.62294828	     39.69620772	     45.00926750	    777.09343272	    -55.90438659	     29.01456221	    -45.00000000	     39.48456877	    -45.00000000	    -45.00000000	    627.91804561	  -4970.15839720	     19.51379826	    179.99999979	   1446.44303627	   -152.71098189	     13.19153000	     11.74993951	      3.61357073	     28.53944629	    -30.34597724	    -44.31370304	    -45.00000000	  -3521.27420194	    629.63161226	    133.10777674	    -99.99556943	    710.88133974	    409.55303301	     11.12604770	    -15.74453865
      8.24000000	    -30.71381917	    -24.36468649	     39.40390317	     42.47397828	    777.00485253	    -55.97713848	     29.04270908	    -45.00000000	     39.46771202	    -45.00000000	    -45.00000000	    627.83061522	  -4970.11049396	     19.49529515	    179.99999979	   1446.53790322	   -152.15160763	     13.23029344	     11.82363406	      3.57508991	     28.64035618	    -30.32947459	    -44.35064177	    -45.00000000	  -3521.26501247	    629.64916983	    133.10689185	   -100.25869125	    710.90553746	    409.72558855	     11.08275710	    -15.82097002
      8.25000000	    -30.89546113	    -24.23881127	     39.18171240	     39.91047400	    776.92557966	    -56.05904652	     29.09604028	    -45.00000000	     39.43709790	    -45.00000000	    -45.00000000	    627.73269264	  -4970.12294284	     19.43696244	    179.99999979	   1446.62016840	   -151.52399239	     13.28951899	     11.92887679	      3.57333131	     28.88878163	    -30.24015437	    -44.56309292	    -45.00000000	  -3521.31728175	    629.62994461	    133.17056024	   -100.51903064	    710.93616271	    409.91117413	     11.07735942	    -15.93807144
      8.26000000	    -31.04970054	    -24.05862643	     38.93067858	     37.32839118	    776.86297975	    -56.13468500	     29.22729580	    -45.00000000	     39.43619286	    -45.00000000	    -45.00000000	    627.58559519	  -4970.16079340	     19.42416758	    179.99999979	   1446.69928652	   -150.82375399	     13.37102517	     12.08710273	      3.49557784	     29.19711535	    -30.13238873	    -44.71216798	    -45.00000000	  -3521.36216441	    629.62024992	    133.15935740	   -100.71540865	    710.95274464	    410.11293775	     11.07999394	    -16.07624890
      8.27000000	    -31.22880430	    -23.87337522	     38.61955018	     34.70888549	    776.82289444	    -56.20850909	     29.27198505	    -45.00000000	     39.38699676	    -45.00000000	    -45.00000000	    627.49594570	  -4970.15827678	     19.39134875	    179.99999979	   1446.76946322	   -150.01654268	     13.43847666	     12.19727213	      3.46309794	     29.36066107	    -30.09594748	    -44.83670160	    -45.00000000	  -3521.35732544	    629.58595754	    133.17477517	   -100.91928553	    710.99478145	    410.32901211	     11.04014920	    -16.18479278
      8.28000000	    -31.41619277	    -23.62556147	     38.18989694	     32.01377019	    776.80641319	    -56.29470772	     29.16779150	    -45.00000000	     39.31968587	    -45.00000000	    -45.00000000	    627.51237520	  -4970.07565918	     19.31431770	    179.99999979	   1446.84275409	   -149.05117256	     13.47743495	     12.23304559	      3.55348241	     29.22296276	    -30.14906714	    -44.85792711	    -45.00000000	  -3521.35900927	    629.54003052	    133.22112469	   -101.16596453	    711.03861532	    410.55420374	     10.94855211	    -16.22309048
      8.29000000	    -31.65161843	    -23.36387766	     37.74401917	     29.20639748	    776.81445766	    -56.41050337	     29.10758763	    -45.00000000	     39.24571949	    -45.00000000	    -45.00000000	    627.53199610	  -4970.03552284	     19.18420081	    179.99999979	   1446.93712410	   -147.73910158	     13.51443225	     12.29200741	      3.61758694	     29.01647417	    -30.26275160	    -44.86202798	    -45.00000000	  -3521.27013942	    629.49764564	    133.23584509	   -101.33048559	    711.07462013	    410.78778956	     10.84828077	    -16.25864901
      8.30000000	    -35.58791521	    -24.11042811	     36.47026719	     21.47200867	    790.97796976	    -69.78138714	     29.20918378	    -45.00000000	     38.43510832	    -45.00000000	    -45.00000000	    628.81740310	  -4970.30799787	     18.57944121	    179.99999979	   1447.92213099	   -144.23975729	     24.44956566	     16.42764385	      4.73665509	     29.71141933	    -30.62052812	    -45.00000000	    -45.00000000	  -3520.44832326	    629.76414651	    133.00814634	   -102.23195977	    711.59660479	    411.49017930	     10.50553405	    -16.43772803
      8.31000000	    -35.91180253	    -23.63409531	     36.00408401	     18.93905016	    791.16317679	    -69.72233995	     28.50705659	    -45.00000000	     38.02506336	    -45.00000000	    -45.00000000	    628.82308832	  -4970.20866942	     18.59894606	    179.99999979	   1448.09022576	   -145.40863772	     24.27190494	     16.48262764	      4.98258651	     29.64752411	    -31.03509343	    -45.00000000	    -45.00000000	  -3520.31390338	    629.52371143	    133.08690328	   -102.88366374	    711.70988280	    411.85159287	     10.48540421	    -16.58794121
      8.32000000	    -36.05124086	    -23.40267132	     35.72831892	     16.37172618	    791.38482392	    -69.65470626	     28.57561547	    -45.00000000	     37.77991770	    -45.00000000	    -45.00000000	    628.63496310	  -4970.09971067	     18.71977662	    179.99999979	   1448.14795578	   -146.32751918	     24.21329202	     16.65187813	      4.84918738	     29.28398420	    -31.09559153	    -45.00000000	    -45.00000000	  -3519.86935287	    629.25260738	    132.89033114	   -103.05514342	    712.06910922	    412.11563688	     10.31938569	    -16.76337646
